<?xml version="1.0" standalone="no"?><!DOCTYPE svg PUBLIC "-//W3C//DTD SVG 1.1//EN" "http://www.w3.org/Graphics/SVG/1.1/DTD/svg11.dtd"><svg t="1627864462238" class="icon" viewBox="0 0 1024 1024" version="1.1" xmlns="http://www.w3.org/2000/svg" p-id="8015" xmlns:xlink="http://www.w3.org/1999/xlink" width="32" height="32"><defs><style type="text/css"></style></defs><path d="M970.52 527.8h-30.56v-39.46c-0.02-0.38-0.08-0.78-0.12-1.16-0.04-0.28-0.06-0.56-0.12-0.82-0.06-0.34-0.2-0.66-0.3-1-0.1-0.28-0.16-0.58-0.3-0.86-0.12-0.3-0.28-0.56-0.44-0.82-0.16-0.3-0.3-0.6-0.48-0.86-0.18-0.28-0.42-0.5-0.62-0.76-0.2-0.24-0.38-0.48-0.6-0.7-0.24-0.24-0.52-0.44-0.78-0.64-0.24-0.2-0.46-0.4-0.72-0.58-0.26-0.16-0.54-0.3-0.82-0.44-0.3-0.16-0.6-0.34-0.92-0.46-0.24-0.12-0.52-0.18-0.8-0.26-0.36-0.12-0.72-0.24-1.12-0.32-0.04 0-0.08-0.02-0.12-0.02l-166.24-29.24c-0.3-0.06-0.6-0.04-0.9-0.06-0.28-0.02-0.54-0.1-0.84-0.1-0.04 0-0.08 0.02-0.12 0.02-0.44 0-0.84 0.08-1.26 0.14-0.24 0.02-0.48 0.04-0.72 0.08-0.4 0.08-0.76 0.22-1.14 0.36-0.24 0.08-0.5 0.14-0.72 0.24-0.34 0.14-0.66 0.34-0.98 0.52-0.24 0.14-0.48 0.26-0.7 0.4-0.32 0.22-0.58 0.46-0.86 0.7-0.2 0.18-0.42 0.34-0.62 0.54-0.24 0.26-0.46 0.54-0.68 0.82-0.18 0.22-0.36 0.44-0.52 0.68-0.18 0.26-0.32 0.56-0.46 0.84-0.16 0.3-0.34 0.58-0.46 0.88-0.12 0.26-0.18 0.56-0.26 0.82-0.12 0.38-0.24 0.72-0.3 1.1-0.02 0.06-0.04 0.1-0.04 0.14-0.06 0.3-0.04 0.58-0.08 0.88-0.02 0.28-0.08 0.56-0.08 0.84v68.56h-17.08v-39.46c0-0.38-0.08-0.78-0.12-1.16-0.04-0.28-0.04-0.56-0.1-0.82-0.08-0.34-0.2-0.66-0.32-1-0.1-0.28-0.16-0.58-0.28-0.86-0.14-0.3-0.3-0.56-0.46-0.82-0.16-0.3-0.3-0.6-0.48-0.86-0.18-0.28-0.4-0.5-0.62-0.76-0.2-0.24-0.38-0.48-0.6-0.7-0.24-0.24-0.52-0.44-0.78-0.64-0.24-0.2-0.46-0.4-0.72-0.58-0.26-0.16-0.54-0.3-0.82-0.44-0.3-0.16-0.6-0.34-0.92-0.46-0.24-0.12-0.52-0.18-0.78-0.26-0.38-0.12-0.74-0.24-1.14-0.32-0.04 0-0.08-0.02-0.12-0.02l-166.24-29.24c-0.3-0.06-0.6-0.04-0.9-0.06-0.28-0.02-0.54-0.1-0.82-0.1-0.06 0-0.1 0.02-0.14 0.02-0.44 0-0.86 0.08-1.28 0.14-0.22 0.02-0.46 0.04-0.7 0.08-0.4 0.08-0.78 0.24-1.18 0.36-0.22 0.08-0.46 0.14-0.68 0.24-0.36 0.16-0.7 0.36-1.04 0.56-0.22 0.12-0.44 0.22-0.64 0.36-0.32 0.24-0.62 0.5-0.92 0.76-0.18 0.16-0.38 0.3-0.54 0.48-0.28 0.26-0.5 0.58-0.74 0.88-0.16 0.2-0.34 0.4-0.48 0.6-0.18 0.28-0.32 0.6-0.48 0.9-0.16 0.28-0.32 0.56-0.44 0.84-0.1 0.28-0.18 0.56-0.26 0.84-0.1 0.36-0.24 0.72-0.3 1.08-0.02 0.06-0.04 0.1-0.04 0.14-0.06 0.3-0.04 0.58-0.06 0.88-0.02 0.28-0.08 0.56-0.08 0.84v68.56h-17.08v-39.32c0-0.04-0.02-0.08-0.02-0.14 0-0.38-0.06-0.78-0.12-1.16-0.04-0.28-0.04-0.56-0.1-0.82-0.08-0.34-0.2-0.66-0.32-1-0.08-0.28-0.16-0.58-0.28-0.86-0.12-0.3-0.3-0.56-0.46-0.82-0.16-0.3-0.3-0.6-0.48-0.86-0.18-0.28-0.4-0.5-0.62-0.76-0.2-0.24-0.38-0.48-0.6-0.7-0.24-0.24-0.52-0.44-0.78-0.64-0.24-0.2-0.46-0.4-0.72-0.58-0.26-0.16-0.54-0.3-0.82-0.44-0.3-0.16-0.58-0.34-0.9-0.46-0.26-0.12-0.54-0.18-0.8-0.26-0.38-0.12-0.74-0.24-1.12-0.32-0.06 0-0.1-0.02-0.14-0.02l-166.24-29.24c-0.28-0.06-0.58-0.04-0.88-0.06-0.28-0.02-0.56-0.1-0.84-0.1-0.06 0-0.1 0.02-0.14 0.02-0.4 0-0.8 0.08-1.22 0.12-0.24 0.04-0.5 0.04-0.76 0.1-0.36 0.08-0.72 0.22-1.08 0.34-0.26 0.08-0.52 0.16-0.78 0.26-0.32 0.14-0.62 0.32-0.92 0.5-0.26 0.14-0.52 0.26-0.76 0.44-0.3 0.2-0.54 0.44-0.82 0.66-0.22 0.18-0.44 0.36-0.64 0.56-0.26 0.24-0.46 0.54-0.68 0.8-0.18 0.24-0.38 0.46-0.54 0.7-0.18 0.26-0.3 0.54-0.46 0.82-0.16 0.3-0.32 0.6-0.46 0.9-0.1 0.26-0.16 0.54-0.24 0.8-0.12 0.38-0.24 0.74-0.32 1.14 0 0.04-0.02 0.08-0.04 0.12-0.04 0.28-0.04 0.56-0.06 0.86-0.02 0.28-0.08 0.58-0.08 0.86v68.56h-20.56V140.08c0-5.52-4.48-10-10-10h-28.5V95.26c0-5.52-4.48-10-10-10h-125.8c-5.52 0-10 4.48-10 10v34.82H113.76c-5.52 0-10 4.48-10 10v92.24H53.48c-5.54 0-10 4.48-10 10v444c0 5.52 4.46 10 10 10h50.28v65.32H53.48c-5.54 0-10 4.48-10 10v157.1c0 5.52 4.46 10 10 10h917.04c5.54 0 10-4.48 10-10V537.8c0-5.52-4.46-10-10-10zM162.24 105.26h105.8v24.82h-105.8V105.26zM63.48 676.32v-424h40.28v424H63.48z m243.06-463.64h-46c-5.52 0-10 4.48-10 10s4.48 10 10 10h46v32.52h-46c-5.52 0-10 4.48-10 10s4.48 10 10 10h46v32.52h-46c-5.52 0-10 4.48-10 10s4.48 10 10 10h46v32.52h-46c-5.52 0-10 4.48-10 10s4.48 10 10 10h46v32.52h-46c-5.52 0-10 4.48-10 10s4.48 10 10 10h46v32.52h-46c-5.52 0-10 4.48-10 10s4.48 10 10 10h46v32.52h-46c-5.52 0-10 4.48-10 10s4.48 10 10 10h46v32.52h-46c-5.52 0-10 4.48-10 10s4.48 10 10 10h46v32.52h-46c-5.52 0-10 4.48-10 10s4.48 10 10 10h46v32.52h-46c-5.52 0-10 4.48-10 10 0 5.54 4.48 10 10 10h46v32.52h-46c-5.52 0-10 4.48-10 10 0 5.54 4.48 10 10 10h46v32.52h-46c-5.52 0-10 4.48-10 10 0 5.54 4.48 10 10 10h46v32.52h-46c-5.52 0-10 4.48-10 10 0 5.54 4.48 10 10 10h46v55.82H63.48v-137.1h50.28c5.52 0 10-4.48 10-10V150.08h182.78v62.6z m467.18 258.48l146.24 25.72v30.92h-146.24v-56.64z m-203.3 0l146.22 25.72v30.92h-146.22v-56.64z m-203.32 0l146.24 25.72v30.92h-146.24v-56.64z m593.42 447.58H326.54V547.8h633.98v370.94z" fill="#23130D" p-id="8016"></path><path d="M63.48 252.32h40.28v424H63.48z" fill="#E1E1E5" p-id="8017"></path><path d="M89 252.32h14.76v424H89z" fill="#23130D" opacity=".2" p-id="8018"></path><path d="M162.24 105.26h105.8v24.82h-105.8z" fill="#E1E1E5" p-id="8019"></path><path d="M162.24 120.5h105.8v9.58h-105.8z" fill="#23130D" opacity=".2" p-id="8020"></path><path d="M513.34 496.88v30.92h-146.24v-56.64z" fill="#EC7063" p-id="8021"></path><path d="M513.34 496.88v20l-146.24-25.72v-20z" fill="#FFFFFF" opacity=".4" p-id="8022"></path><path d="M716.64 496.88v30.92h-146.22v-56.64zM919.96 496.88v30.92h-146.24v-56.64z" fill="#EC7063" p-id="8023"></path><path d="M326.54 547.8v370.94h633.98V547.8H326.54z m189.98 138.52c0 5.52-4.48 10-10 10h-132.6c-5.54 0-10-4.48-10-10v-92.42c0-5.52 4.46-10 10-10h132.6c5.52 0 10 4.48 10 10v92.42z m203.32 0c0 5.52-4.48 10-10 10h-132.62c-5.52 0-10-4.48-10-10v-92.42c0-5.52 4.48-10 10-10h132.62c5.52 0 10 4.48 10 10v92.42z m203.32 0c0 5.52-4.48 10-10 10h-132.62c-5.52 0-10-4.48-10-10v-92.42c0-5.52 4.48-10 10-10h132.62c5.52 0 10 4.48 10 10v92.42z" fill="#E1E1E5" p-id="8024"></path><path d="M326.54 547.8v370.94h19.66V567.46h614.32v-19.66H326.54z" fill="#FFFFFF" opacity=".6" p-id="8025"></path><path d="M940.86 547.8v351.28H326.54v19.66h633.98V547.8h-19.66z" fill="#23130D" opacity=".2" p-id="8026"></path><path d="M250.54 222.68c0 5.52 4.48 10 10 10h46v32.52h-46c-5.52 0-10 4.48-10 10s4.48 10 10 10h46v32.52h-46c-5.52 0-10 4.48-10 10s4.48 10 10 10h46v32.52h-46c-5.52 0-10 4.48-10 10s4.48 10 10 10h46v32.52h-46c-5.52 0-10 4.48-10 10s4.48 10 10 10h46v32.52h-46c-5.52 0-10 4.48-10 10s4.48 10 10 10h46v32.52h-46c-5.52 0-10 4.48-10 10s4.48 10 10 10h46v32.52h-46c-5.52 0-10 4.48-10 10s4.48 10 10 10h46v32.52h-46c-5.52 0-10 4.48-10 10s4.48 10 10 10h46v32.52h-46c-5.52 0-10 4.48-10 10 0 5.54 4.48 10 10 10h46v32.52h-46c-5.52 0-10 4.48-10 10 0 5.54 4.48 10 10 10h46v32.52h-46c-5.52 0-10 4.48-10 10 0 5.54 4.48 10 10 10h46v32.52h-46c-5.52 0-10 4.48-10 10 0 5.54 4.48 10 10 10h46v55.82H63.48v-137.1h50.28c5.52 0 10-4.48 10-10V150.08h182.78v62.6h-46c-5.52 0-10 4.48-10 10z" fill="#3594BF" p-id="8027"></path><path d="M63.48 781.64h40.28v137.1H63.48zM164.04 150.08v621.56c0 5.52-4.48 10-10 10H113.76c5.52 0 10-4.48 10-10V150.08h40.28z" fill="#23130D" opacity=".2" p-id="8028"></path><path d="M506.52 583.9h-132.6c-5.54 0-10 4.48-10 10v92.42c0 5.52 4.46 10 10 10h132.6c5.52 0 10-4.48 10-10v-92.42c0-5.52-4.48-10-10-10z m-10 92.42h-112.6v-72.42h112.6v72.42z" fill="#23130D" p-id="8029"></path><path d="M383.92 603.9h112.6v72.42h-112.6z" fill="#F9C139" p-id="8030"></path><path d="M496.52 603.9v72.42h-112.6v-7h105.6v-65.42z" fill="#23130D" opacity=".2" p-id="8031"></path><path d="M709.84 583.9h-132.62c-5.52 0-10 4.48-10 10v92.42c0 5.52 4.48 10 10 10h132.62c5.52 0 10-4.48 10-10v-92.42c0-5.52-4.48-10-10-10z m-10 92.42h-112.62v-72.42h112.62v72.42z" fill="#23130D" p-id="8032"></path><path d="M587.22 603.9h112.62v72.42h-112.62z" fill="#F9C139" p-id="8033"></path><path d="M913.16 583.9h-132.62c-5.52 0-10 4.48-10 10v92.42c0 5.52 4.48 10 10 10h132.62c5.52 0 10-4.48 10-10v-92.42c0-5.52-4.48-10-10-10z m-10 92.42h-112.62v-72.42h112.62v72.42z" fill="#23130D" p-id="8034"></path><path d="M790.54 603.9h112.62v72.42h-112.62z" fill="#F9C139" p-id="8035"></path><path d="M716.65 496.88v20l-146.24-25.72v-20zM919.96 496.88v20l-146.24-25.72v-20z" fill="#FFFFFF" opacity=".4" p-id="8036"></path><path d="M699.83 603.9v72.42h-112.6v-7h105.6v-65.42zM903.14 603.9v72.42h-112.6v-7h105.6v-65.42z" fill="#23130D" opacity=".2" p-id="8037"></path></svg>